<svg xmlns="http://www.w3.org/2000/svg" viewBox="0 0 1024 1024" role="img" aria-labelledby="title desc">
  <title id="title">Lucky Pick Canada maple leaf and four-leaf clover logo</title>
  <desc id="desc">A traditional red Canadian maple leaf with a green four-leaf clover luck mark at its center.</desc>
  <defs>
    <linearGradient id="leafGradient" x1="50%" y1="5%" x2="50%" y2="96%">
      <stop offset="0" stop-color="#ff4b3e"/>
      <stop offset="0.46" stop-color="#e30613"/>
      <stop offset="1" stop-color="#970008"/>
    </linearGradient>
    <radialGradient id="cloverGradient" cx="36%" cy="28%" r="78%">
      <stop offset="0" stop-color="#b8f26a"/>
      <stop offset="0.5" stop-color="#35b51f"/>
      <stop offset="1" stop-color="#086b13"/>
    </radialGradient>
    <filter id="softShadow" x="-18%" y="-18%" width="136%" height="136%">
      <feDropShadow dx="0" dy="18" stdDeviation="16" flood-color="#000" flood-opacity="0.28"/>
    </filter>
  </defs>

  <rect width="1024" height="1024" rx="104" fill="#fff"/>

  <g filter="url(#softShadow)">
    <path
      fill="url(#leafGradient)"
      stroke="#7a0008"
      stroke-width="9"
      stroke-linejoin="round"
      d="M512 34 582 230 656 108 669 302 806 244 756 403 944 390 798 508 898 604 724 634 746 805 588 713 512 984 436 713 278 805 300 634 126 604 226 508 80 390 268 403 218 244 355 302 368 108 442 230 512 34Z"
    />
    <path
      fill="#bf000c"
      opacity="0.92"
      d="M512 115 561 277 625 174 634 336 742 294 703 426 858 421 732 514 815 594 668 619 686 753 556 675 512 842 468 675 338 753 356 619 209 594 292 514 166 421 321 426 282 294 390 336 399 174 463 277 512 115Z"
    />
    <path
      fill="none"
      stroke="#ff827c"
      stroke-width="6"
      stroke-linecap="round"
      stroke-linejoin="round"
      opacity="0.74"
      d="M512 86v840M512 452 398 180M512 452 626 180M512 530 248 288M512 530 776 288M512 624 190 594M512 624 834 594M512 698 362 778M512 698 662 778"
    />
  </g>

  <g filter="url(#softShadow)">
    <circle cx="512" cy="540" r="170" fill="#ffffff" opacity="0.92"/>
    <path
      fill="url(#cloverGradient)"
      stroke="#06610f"
      stroke-width="9"
      stroke-linejoin="round"
      d="M512 506c-56-111 9-188 84-157 66 27 67 93 19 143 68-29 132-3 138 63 8 78-75 116-167 54 30 91-12 165-74 166-62-1-104-75-74-166-92 62-175 24-167-54 6-66 70-92 138-63-48-50-47-116 19-143 75-31 140 46 84 157Z"
    />
    <path
      fill="#0b7a18"
      d="M513 514c-31-66 7-105 49-87 37 16 36 53 8 83 42-19 79-2 82 35 4 45-45 67-99 31 19 53-5 96-40 97-36-1-60-44-41-97-54 36-103 14-99-31 3-37 40-54 82-35-28-30-29-67 8-83 42-18 80 21 50 87Z"
      opacity="0.18"
    />
    <path
      fill="none"
      stroke="#d7ff9f"
      stroke-width="7"
      stroke-linecap="round"
      opacity="0.78"
      d="M512 516c-35-51-66-86-94-111M512 516c38-51 69-85 98-110M512 516c-58 7-106 20-148 39M512 516c60 7 110 20 153 40M512 516c-11 68-10 124 3 179"
    />
    <path
      fill="none"
      stroke="#075e13"
      stroke-width="18"
      stroke-linecap="round"
      d="M512 628c-11 68-48 125-110 170"
    />
    <path
      fill="none"
      stroke="#47c52a"
      stroke-width="7"
      stroke-linecap="round"
      d="M509 633c-16 54-46 98-92 135"
    />
  </g>
</svg>
