<svg xmlns="http://www.w3.org/2000/svg" viewBox="0 0 1024 1024" role="img" aria-labelledby="title desc">
  <title id="title">Lucky Pick Canada maple leaf and four-leaf clover logo</title>
  <desc id="desc">A classic red Canadian maple leaf logo with a four-leaf green clover worked into the center.</desc>
  <defs>
    <linearGradient id="leafGradient" x1="50%" y1="4%" x2="50%" y2="96%">
      <stop offset="0" stop-color="#ff5a4f"/>
      <stop offset="0.42" stop-color="#e30613"/>
      <stop offset="1" stop-color="#8f0008"/>
    </linearGradient>
    <linearGradient id="leafShade" x1="50%" y1="12%" x2="50%" y2="92%">
      <stop offset="0" stop-color="#ff9189" stop-opacity="0.5"/>
      <stop offset="0.5" stop-color="#c60010" stop-opacity="0.16"/>
      <stop offset="1" stop-color="#710007" stop-opacity="0.5"/>
    </linearGradient>
    <radialGradient id="cloverGradient" cx="35%" cy="27%" r="82%">
      <stop offset="0" stop-color="#ccff79"/>
      <stop offset="0.48" stop-color="#38b81f"/>
      <stop offset="1" stop-color="#066212"/>
    </radialGradient>
    <filter id="softShadow" x="-18%" y="-18%" width="136%" height="136%">
      <feDropShadow dx="0" dy="20" stdDeviation="18" flood-color="#000" flood-opacity="0.28"/>
    </filter>
  </defs>

  <rect width="1024" height="1024" rx="104" fill="#fff"/>

  <g filter="url(#softShadow)">
    <path
      fill="url(#leafGradient)"
      stroke="#770008"
      stroke-width="10"
      stroke-linejoin="round"
      d="M512 42 568 221 652 103 657 294 804 222 747 388 940 364 790 494 894 598 710 626 738 803 584 704 512 982 440 704 286 803 314 626 130 598 234 494 84 364 277 388 220 222 367 294 372 103 456 221 512 42Z"
    />
    <path
      fill="url(#leafShade)"
      opacity="0.88"
      d="M512 118 554 266 618 171 623 330 736 279 696 420 854 407 726 516 806 590 654 612 676 744 552 664 512 822 472 664 348 744 370 612 218 590 298 516 170 407 328 420 288 279 401 330 406 171 470 266 512 118Z"
    />
    <path
      fill="none"
      stroke="#ffd0cc"
      stroke-width="6"
      stroke-linecap="round"
      stroke-linejoin="round"
      opacity="0.76"
      d="M512 84v842M512 454 408 178M512 454 616 178M512 532 256 278M512 532 768 278M512 622 184 591M512 622 840 591M512 700 358 784M512 700 666 784"
    />
    <path
      fill="none"
      stroke="#850008"
      stroke-width="8"
      stroke-linecap="round"
      stroke-linejoin="round"
      opacity="0.22"
      d="M512 158v712M512 512 312 332M512 512 712 332M512 620 292 650M512 620 732 650"
    />
  </g>

  <g filter="url(#softShadow)">
    <circle cx="512" cy="542" r="184" fill="#fff" opacity="0.93"/>
    <circle cx="512" cy="542" r="160" fill="#f8fff1" opacity="0.74"/>
    <path
      fill="url(#cloverGradient)"
      stroke="#055c10"
      stroke-width="10"
      stroke-linejoin="round"
      d="M512 506c-72-118-2-204 79-172 70 28 76 101 25 157 77-36 148-7 155 66 8 86-86 128-188 60 37 103-10 184-71 185-61-1-108-82-71-185-102 68-196 26-188-60 7-73 78-102 155-66-51-56-45-129 25-157 81-32 151 54 79 172Z"
    />
    <path
      fill="#0a7816"
      opacity="0.16"
      d="M512 521c-42-75 2-126 52-106 43 17 46 62 12 99 48-24 94-4 98 41 5 52-54 78-117 35 24 66-4 118-45 119-41-1-69-53-45-119-63 43-122 17-117-35 4-45 50-65 98-41-34-37-31-82 12-99 50-20 94 31 52 106Z"
    />
    <path
      fill="none"
      stroke="#dcff9e"
      stroke-width="8"
      stroke-linecap="round"
      stroke-linejoin="round"
      opacity="0.84"
      d="M512 518c-40-58-72-96-102-120M512 518c42-58 75-96 106-121M512 518c-70 8-121 22-165 46M512 518c72 8 124 23 169 47M512 518c-13 74-11 136 5 195"
    />
    <path
      fill="none"
      stroke="#055c10"
      stroke-width="20"
      stroke-linecap="round"
      d="M512 638c-14 69-56 124-122 162"
    />
    <path
      fill="none"
      stroke="#51d238"
      stroke-width="7"
      stroke-linecap="round"
      d="M508 642c-20 54-54 96-102 128"
    />
  </g>
</svg>
