<svg xmlns="http://www.w3.org/2000/svg" viewBox="0 0 420 592"><rect width="420" height="592" rx="44" fill="#0f172a"/><rect x="18" y="18" width="384" height="556" rx="38" fill="#475569" stroke="#f8fafc" stroke-width="10"/><path d="M170 145c46-72 144-48 140 36-4 75-96 92-132 38-50 67-36 158 52 190-77 42-152-4-145-82 7-76 33-135 85-182z" fill="#f8fafc" stroke="#64748b" stroke-width="13"/><ellipse cx="260" cy="161" rx="33" ry="74" fill="#fecdd3" transform="rotate(28 260 161)"/><circle cx="273" cy="201" r="14" fill="#0f172a"/><path d="M220 407c54 68 142 59 164-20" fill="none" stroke="#f8fafc" stroke-width="38" stroke-linecap="round"/><path d="M318 392l67 55" stroke="#facc15" stroke-width="18" stroke-linecap="round"/><circle cx="390" cy="452" r="24" fill="#facc15" stroke="#92400e" stroke-width="9"/><text x="210" y="520" text-anchor="middle" font-family="Arial,sans-serif" font-size="34" font-weight="900" fill="#f8fafc">RABBIT'S FOOT</text></svg>
