<svg xmlns="http://www.w3.org/2000/svg" viewBox="0 0 420 592"><rect width="420" height="592" rx="44" fill="#020617"/><rect x="18" y="18" width="384" height="556" rx="38" fill="#fff7ed" stroke="#facc15" stroke-width="10"/><text x="62" y="88" font-family="Georgia,serif" font-size="58" font-weight="900" fill="#020617">A</text><text x="358" y="504" font-family="Georgia,serif" font-size="58" font-weight="900" fill="#020617" transform="rotate(180 358 504)">A</text><path d="M210 130C116 216 90 282 151 336c34 30 58 5 59-17 1 22 25 47 59 17 61-54 35-120-59-206z" fill="#020617"/><path d="M210 310c-8 72-34 112-82 128h164c-48-16-74-56-82-128z" fill="#020617"/><path d="M210 70l22 62h66l-53 39 20 63-55-38-55 38 20-63-53-39h66z" fill="#facc15"/><text x="210" y="520" text-anchor="middle" font-family="Arial,sans-serif" font-size="33" font-weight="900" fill="#020617">ACE OF SPADES</text></svg>
