<svg xmlns="http://www.w3.org/2000/svg" viewBox="0 0 420 592" role="img" aria-labelledby="title desc">
  <title id="title">Gold mystery LuckyPickCanada card back</title>
  <desc id="desc">A gold mystery card back with stars and LuckyPickCanada branding, no revealed lucky symbol.</desc>
  <defs>
    <radialGradient id="glow" cx="50%" cy="18%" r="70%"><stop offset="0" stop-color="#fff7d6"/><stop offset=".45" stop-color="#facc15"/><stop offset="1" stop-color="#92400e"/></radialGradient>
    <linearGradient id="gold" x1="0" x2="1" y1="0" y2="1"><stop stop-color="#fff7d6"/><stop offset=".35" stop-color="#facc15"/><stop offset=".75" stop-color="#b7791f"/><stop offset="1" stop-color="#fff1a8"/></linearGradient>
  </defs>
  <rect width="420" height="592" rx="44" fill="#2b1704"/>
  <rect x="18" y="18" width="384" height="556" rx="38" fill="url(#gold)" stroke="#fff7d6" stroke-width="10"/>
  <rect x="48" y="56" width="324" height="480" rx="30" fill="none" stroke="#5c3608" stroke-width="10" opacity=".55"/>
  <rect x="78" y="92" width="264" height="408" rx="22" fill="none" stroke="#fff7d6" stroke-width="5" opacity=".62"/>
  <circle cx="210" cy="248" r="104" fill="url(#glow)" opacity=".65"/>
  <path d="M210 146l24 70h74l-60 43 24 70-62-44-62 44 24-70-60-43h74z" fill="#fff7d6" opacity=".92"/>
  <g fill="#fff7d6" opacity=".85"><path d="M91 147l9 25 25 9-25 9-9 25-9-25-25-9 25-9z"/><path d="M329 151l8 22 22 8-22 8-8 22-8-22-22-8 22-8z"/><path d="M315 383l10 28 28 10-28 10-10 28-10-28-28-10 28-10z"/></g>
  <path d="M140 408c45-32 95-32 140 0" fill="none" stroke="#5c3608" stroke-width="14" stroke-linecap="round" opacity=".78"/>
  <text x="210" y="470" text-anchor="middle" fill="#5c3608" font-family="Arial, sans-serif" font-size="32" font-weight="900" letter-spacing="3">LUCKY</text>
  <text x="210" y="510" text-anchor="middle" fill="#5c3608" font-family="Arial, sans-serif" font-size="18" font-weight="900" letter-spacing="2">PICK CANADA</text>
</svg>
