<svg xmlns="http://www.w3.org/2000/svg" viewBox="0 0 120 120" role="img" aria-label="Lucky Pick Canada maple clover logo">
  <defs>
    <linearGradient id="maple-clover-red" x1="20" x2="100" y1="12" y2="108" gradientUnits="userSpaceOnUse">
      <stop offset="0" stop-color="#ef4444" />
      <stop offset="1" stop-color="#991b1b" />
    </linearGradient>
    <linearGradient id="maple-clover-green" x1="38" x2="82" y1="34" y2="86" gradientUnits="userSpaceOnUse">
      <stop offset="0" stop-color="#86efac" />
      <stop offset="1" stop-color="#15803d" />
    </linearGradient>
  </defs>
  <circle cx="60" cy="60" r="56" fill="#ffffff" />
  <path d="M60 9 L70 33 L94 20 L86 46 L111 53 L87 64 L96 91 L69 82 L60 111 L51 82 L24 91 L33 64 L9 53 L34 46 L26 20 L50 33 Z" fill="url(#maple-clover-red)" />
  <path d="M60 62 C42 45 48 28 60 37 C72 28 78 45 60 62 Z" fill="url(#maple-clover-green)" />
  <path d="M58 64 C41 82 24 75 34 62 C24 50 41 43 58 64 Z" fill="url(#maple-clover-green)" />
  <path d="M62 64 C79 43 96 50 86 62 C96 75 79 82 62 64 Z" fill="url(#maple-clover-green)" />
  <path d="M60 67 C76 84 70 100 60 91 C50 100 44 84 60 67 Z" fill="url(#maple-clover-green)" />
  <path d="M60 61 C58 73 55 83 49 93" fill="none" stroke="#064e3b" stroke-width="4" stroke-linecap="round" />
  <circle cx="60" cy="63" r="5" fill="#fef3c7" />
</svg>
